<svg xmlns="http://www.w3.org/2000/svg" version="1.1" xmlns:xlink="http://www.w3.org/1999/xlink" xmlns:svgjs="http://svgjs.dev/svgjs" width="1000" height="1000" viewBox="0 0 1000 1000"><rect width="1000" height="1000" fill="#ffffff"></rect><g transform="matrix(0.7,0,0,0.7,150,281.25)"><svg viewBox="0 0 512 320" data-background-color="#ffffff" preserveAspectRatio="xMidYMid meet" height="625" width="1000" xmlns="http://www.w3.org/2000/svg" xmlns:xlink="http://www.w3.org/1999/xlink"><g id="tight-bounds" transform="matrix(1,0,0,1,0,0)"><svg viewBox="0 0 512 320" height="320" width="512"><g><svg></svg></g><g><svg viewBox="0 0 512 320" height="320" width="512"><g><path xmlns="http://www.w3.org/2000/svg" d="M96 320l0-320 320 0 0 320zM412.99 316.99l0-313.98-313.98 0 0 313.98z" fill="#755bb4" fill-rule="nonzero" stroke="none" stroke-width="1" stroke-linecap="butt" stroke-linejoin="miter" stroke-miterlimit="10" stroke-dasharray="" stroke-dashoffset="0" font-family="none" font-weight="none" font-size="none" text-anchor="none" style="mix-blend-mode: normal" data-fill-palette-color="tertiary"></path></g><g transform="matrix(1,0,0,1,173.42828039416185,80)"><svg viewBox="0 0 165.14343921167628 160" height="160" width="165.14343921167628"><g><svg viewBox="0 0 230.4 223.2241267105304" height="160" width="165.14343921167628"><g transform="matrix(1,0,0,1,0,154.99589167227762)"><svg viewBox="0 0 230.4 68.2282350382528" height="68.2282350382528" width="230.4"><g id="textblocktransform"><svg viewBox="0 0 230.4 68.2282350382528" height="68.2282350382528" width="230.4" id="textblock"><g><svg viewBox="0 0 230.4 46.56399855124955" height="46.56399855124955" width="230.4"><g transform="matrix(1,0,0,1,0,0)"><svg width="230.4" viewBox="2.640000104904175 -31.610000610351562 158.6699981689453 32.06999969482422" height="46.56399855124955" data-palette-color="#755bb4"><g class="wordmark-text-0" data-fill-palette-color="primary" id="text-0"><path d="M7.13-23.45L7.13-23.45Q7.13-22.24 7.93-21.18 8.74-20.11 10-19.43 11.26-18.74 12.87-18.22 14.48-17.7 16.26-17.13 18.05-16.55 19.77-15.86 21.49-15.17 22.76-14.14L22.76-14.14Q25.52-11.9 25.52-8.05L25.52-8.05Q25.52-6.21 24.66-4.57 23.79-2.93 22.24-1.84L22.24-1.84Q19.08 0.46 13.79 0.46L13.79 0.46Q8.79 0.46 5-2.07L5-2.07Q2.64-3.56 2.64-4.6L2.64-4.6Q2.64-5.52 3.56-6.09L3.56-6.09Q3.79-6.32 4.14-6.32 4.48-6.32 4.89-6.03 5.29-5.75 5.83-5.34 6.38-4.94 7.21-4.45 8.05-3.97 8.97-3.56L8.97-3.56Q11.26-2.64 13.45-2.7 15.63-2.76 16.95-3.05 18.28-3.33 19.31-4.02L19.31-4.02Q21.49-5.52 21.55-7.82L21.55-7.82Q21.55-10.69 18.74-12.24L18.74-12.24Q17.47-12.93 15.89-13.48 14.31-14.02 12.56-14.54 10.8-15.06 9.08-15.8 7.36-16.55 6.03-17.59L6.03-17.59Q3.22-19.83 3.22-23.33L3.22-23.33Q3.22-25.17 4.11-26.78 5-28.39 6.55-29.43L6.55-29.43Q9.54-31.55 14.02-31.61L14.02-31.61Q20.52-31.61 24.48-27.41L24.48-27.41Q24.71-27.07 24.71-26.64 24.71-26.21 24.68-25.92 24.66-25.63 24.37-25.34L24.37-25.34Q23.97-24.83 23.3-24.83 22.64-24.83 21.9-25.69L21.9-25.69Q20-27.07 18.85-27.47L18.85-27.47Q16.55-28.39 14.37-28.39L14.37-28.39Q11.55-28.39 9.54-27.24L9.54-27.24Q7.13-25.86 7.13-23.45ZM54.31-29.08L43.96-13.33 43.96-1.9Q43.96-0.57 42.76-0.11L42.76-0.11Q42.41 0 41.84 0 41.26 0 40.63-0.46 40-0.92 40-1.9L40-1.9 40-13.28 29.83-28.74Q29.54-29.08 29.54-29.48 29.54-29.89 29.71-30.23 29.88-30.57 30.23-30.86L30.23-30.86Q30.92-31.38 31.61-31.38L31.61-31.38Q32.87-31.38 33.45-30.34L33.45-30.34 42.24-16.38 42.3-16.38 51.15-30.46Q51.72-31.38 52.76-31.38L52.76-31.38Q53.91-31.38 54.37-30.46L54.37-30.46Q54.6-30.17 54.6-29.89L54.6-29.89Q54.6-29.54 54.31-29.08L54.31-29.08ZM78.33 0L62.24 0Q60.91 0 60.4-1.15L60.4-1.15Q60.22-1.49 60.22-1.9L60.22-1.9 60.22-29.48Q60.22-30.8 61.43-31.21L61.43-31.21Q61.78-31.26 62.35-31.32 62.93-31.38 63.5-30.92 64.08-30.46 64.08-29.48L64.08-29.48 64.08-3.22 78.33-3.22Q79.19-3.22 79.56-2.73 79.94-2.24 79.94-1.64 79.94-1.03 79.54-0.52 79.13 0 78.33 0L78.33 0ZM104.3 0L87.41 0Q86.72 0 86.26-0.46L86.26-0.46Q85.45-1.15 85.45-1.9L85.45-1.9 85.45-29.43Q85.45-30.52 86.6-31.15L86.6-31.15Q86.95-31.26 87.29-31.38L87.29-31.38 103.67-31.38Q104.53-31.38 104.94-30.86 105.34-30.34 105.34-29.74 105.34-29.14 104.88-28.62 104.42-28.1 103.67-28.1L103.67-28.1 89.25-28.1 89.25-17.7 102.98-17.7Q103.84-17.7 104.25-17.21 104.65-16.72 104.65-16.09L104.65-16.09Q104.65-15.52 104.19-15.06 103.73-14.6 102.98-14.6L102.98-14.6 89.25-14.6 89.25-3.22 104.3-3.22Q105.11-3.22 105.51-2.7 105.91-2.18 105.91-1.55 105.91-0.92 105.48-0.46 105.05 0 104.3 0L104.3 0ZM122.35-13.62L113.38-0.86Q112.81 0 111.83 0L111.83 0Q110.74 0 110.16-1.03L110.16-1.03Q110.05-1.38 110.05-1.78 110.05-2.18 110.45-2.64L110.45-2.64 120.16-16.09 111.08-28.62Q110.74-29.08 110.74-29.48 110.74-29.89 110.94-30.2 111.14-30.52 111.48-30.8L111.48-30.8Q112.12-31.38 112.69-31.38L112.69-31.38Q113.9-31.38 114.59-30.46L114.59-30.46 122.81-18.51 131.43-30.46Q132.12-31.38 132.92-31.38L132.92-31.38Q134.07-31.38 134.59-30.34L134.59-30.34Q134.76-30 134.76-29.83L134.76-29.83Q134.76-29.2 134.3-28.79L134.3-28.79 124.93-16.09 134.59-2.76Q134.93-2.3 134.93-1.9 134.93-1.49 134.76-1.18 134.59-0.86 134.24-0.57L134.24-0.57Q133.55 0 132.72 0 131.89 0 131.2-0.86L131.2-0.86 122.35-13.62ZM159.7 0L142.8 0Q142.11 0 141.65-0.46L141.65-0.46Q140.85-1.15 140.85-1.9L140.85-1.9 140.85-29.43Q140.85-30.52 142-31.15L142-31.15Q142.34-31.26 142.69-31.38L142.69-31.38 159.07-31.38Q159.93-31.38 160.33-30.86 160.73-30.34 160.73-29.74 160.73-29.14 160.27-28.62 159.82-28.1 159.07-28.1L159.07-28.1 144.64-28.1 144.64-17.7 158.38-17.7Q159.24-17.7 159.64-17.21 160.04-16.72 160.04-16.09L160.04-16.09Q160.04-15.52 159.59-15.06 159.13-14.6 158.38-14.6L158.38-14.6 144.64-14.6 144.64-3.22 159.7-3.22Q160.5-3.22 160.91-2.7 161.31-2.18 161.31-1.55 161.31-0.92 160.88-0.46 160.45 0 159.7 0L159.7 0Z" fill="#755bb4" data-fill-palette-color="primary"></path></g></svg></g></svg></g><g transform="matrix(1,0,0,1,44.0064,57.55664107323433)"><svg viewBox="0 0 142.3872 10.67159396501847" height="10.67159396501847" width="142.3872"><g transform="matrix(1,0,0,1,0,0)"><svg width="142.3872" viewBox="3.0799999237060547 -39.84000015258789 548.510009765625 41.11000061035156" height="10.67159396501847" data-palette-color="#755bb4"><path d="M3.08-16.5L3.08-16.5Q3.08-19.19 3.72-21.67 4.37-24.15 5.57-26.29 6.76-28.44 8.46-30.2 10.16-31.96 12.26-33.22 14.36-34.47 16.81-35.16 19.26-35.84 21.97-35.84L21.97-35.84Q24.12-35.84 25.74-35.56 27.37-35.28 28.58-34.85 29.79-34.42 30.6-33.91 31.42-33.4 31.96-32.93L31.96-32.93Q31.93-32.93 31.93-32.76L31.93-32.76Q31.93-32.4 31.99-31.42 32.06-30.44 32.14-29.25 32.23-28.05 32.29-26.82 32.35-25.59 32.35-24.68L32.35-24.68Q32.35-24.54 32.25-24.35 32.15-24.17 31.76-24.17L31.76-24.17Q31.54-24.17 31.23-24.24L31.23-24.24Q30.71-24.39 29.93-24.91 29.15-25.44 28.11-26.01 27.08-26.59 25.79-27.04 24.51-27.49 23-27.49L23-27.49Q21-27.49 19.36-26.7 17.72-25.9 16.58-24.51 15.43-23.12 14.79-21.2 14.16-19.29 14.16-17.02L14.16-17.02Q14.16-15.01 14.6-13.2 15.04-11.38 15.93-10.01 16.82-8.64 18.15-7.82 19.48-7.01 21.24-7.01L21.24-7.01Q22.63-7.01 23.71-7.1 24.78-7.2 25.71-7.42 26.64-7.64 27.53-8.01 28.42-8.37 29.44-8.94L29.44-8.94Q29.49-8.96 29.69-8.96L29.69-8.96Q29.86-8.96 29.92-8.83 29.98-8.69 29.98-8.28L29.98-8.28 29.98-5.35Q29.98-4.54 29.97-3.77 29.96-3 29.94-2.39 29.93-1.78 29.92-1.4 29.91-1.03 29.88-1.03L29.88-1.03Q28.76-0.32 27.48 0.13 26.2 0.59 24.84 0.84 23.49 1.1 22.12 1.18 20.75 1.27 19.48 1.27L19.48 1.27Q16.04 1.27 13.04-0.04 10.03-1.34 7.82-3.69 5.62-6.03 4.35-9.3 3.08-12.57 3.08-16.5ZM46.95 1.27L46.95 1.27Q43.5 1.27 40.9 0.15 38.3-0.98 36.55-2.84 34.79-4.71 33.91-7.14 33.03-9.57 33.03-12.18L33.03-12.18Q33.03-14.79 33.88-17.15 34.74-19.51 36.28-21.37 37.81-23.24 39.96-24.5 42.11-25.76 44.7-26.2L44.7-26.2Q45.09-26.22 45.09-26.37L45.09-26.37Q45.09-26.64 45.03-26.87 44.97-27.1 44.97-27.27L44.97-27.27Q44.97-27.54 45.07-27.64 45.16-27.73 45.29-27.73L45.29-27.73Q49.95-27.73 53.22-26.67 56.49-25.61 58.54-23.78 60.59-21.95 61.52-19.46 62.45-16.97 62.45-14.11L62.45-14.11Q62.45-10.47 61.23-7.62 60.01-4.76 57.9-2.78 55.78-0.81 52.96 0.23 50.14 1.27 46.95 1.27ZM42.43-12.45L42.43-12.45Q42.43-11.13 42.71-9.84 42.99-8.54 43.64-7.5 44.28-6.45 45.33-5.8 46.38-5.15 47.95-5.15L47.95-5.15Q49.07-5.2 49.91-5.65 50.75-6.1 51.36-6.82 51.98-7.54 52.38-8.45 52.78-9.35 53.01-10.31 53.24-11.28 53.34-12.21 53.44-13.13 53.44-13.89L53.44-13.89Q53.44-15.16 53.06-16.38 52.68-17.6 51.95-18.53 51.22-19.46 50.13-20.03 49.05-20.61 47.63-20.61L47.63-20.61Q46.16-20.61 45.16-19.74 44.16-18.87 43.56-17.6 42.97-16.33 42.7-14.93 42.43-13.53 42.43-12.45ZM91.77-0.78L85.83 0.88Q85.57 0.95 85.13 1.11 84.69 1.27 84.27 1.27L84.27 1.27Q83.93 1.27 83.67 1.1 83.42 0.93 83.42 0.51L83.42 0.51 83.42 0.37Q83.56-0.95 83.66-1.87 83.76-2.78 83.85-3.53 83.93-4.27 83.99-5.02 84.05-5.76 84.15-6.75 84.25-7.74 84.38-9.09 84.52-10.45 84.71-12.48L84.71-12.48Q84.83-13.72 84.93-15.01 85.03-16.31 85.03-17.41L85.03-17.41Q85.03-18.14 84.92-18.76 84.81-19.38 84.53-19.84 84.25-20.29 83.76-20.53 83.27-20.78 82.51-20.78L82.51-20.78Q81.95-20.78 80.96-20.53 79.98-20.29 79-19.73 78.02-19.17 77.27-18.25 76.51-17.33 76.41-15.99L76.41-15.99Q76.26-14.18 76.14-12.9 76.02-11.62 75.92-10.73 75.83-9.84 75.76-9.28 75.7-8.72 75.68-8.33L75.68-8.33Q75.65-8.23 75.61-7.79 75.56-7.35 75.5-6.74 75.43-6.13 75.37-5.44 75.31-4.76 75.25-4.15 75.19-3.54 75.15-3.1 75.12-2.66 75.12-2.56L75.12-2.56Q75.12-2.37 75.13-2.23 75.14-2.1 75.14-1.98L75.14-1.98Q75.14-1.78 74.96-1.65 74.78-1.51 74.14-1.34L74.14-1.34 67.67 0.88Q67.4 0.98 66.96 1.12 66.52 1.27 66.11 1.27L66.11 1.27Q65.77 1.27 65.51 1.1 65.25 0.93 65.25 0.51L65.25 0.51 67.48-24.44Q67.55-25.24 67.66-25.55 67.77-25.85 68.21-25.95L68.21-25.95Q70.43-26.39 72.77-26.84 75.12-27.29 77.34-28L77.34-28Q77.53-28 77.57-27.94 77.61-27.88 77.61-27.76L77.61-27.76Q77.61-27.71 77.6-27.61 77.58-27.51 77.52-27.17 77.46-26.83 77.35-26.14 77.24-25.44 77.05-24.19L77.05-24.19Q78.73-25.17 80.21-25.77 81.68-26.37 82.99-26.7 84.3-27.03 85.44-27.14 86.59-27.25 87.59-27.25L87.59-27.25Q91.04-27.25 92.6-25.16 94.16-23.07 94.16-18.9L94.16-18.9Q94.16-18.31 94.14-17.69 94.11-17.07 94.04-16.41L94.04-16.41 92.91-5.91Q92.79-4.88 92.77-4.02 92.74-3.15 92.74-2L92.74-2Q92.74-1.81 92.76-1.67 92.77-1.54 92.77-1.44L92.77-1.44Q92.77-1.22 92.59-1.1 92.4-0.98 91.77-0.78L91.77-0.78ZM115.54-18.82L111-18.82Q110.66-16.26 110.36-13.71 110.05-11.16 109.98-8.94L109.98-8.94Q109.98-7.98 110.12-7.35 110.27-6.71 110.55-6.35 110.83-5.98 111.22-5.82 111.61-5.66 112.1-5.66L112.1-5.66Q112.88-5.66 113.81-5.9 114.74-6.13 115.67-6.49L115.67-6.49Q115.96-6.62 116.17-6.68 116.37-6.74 116.52-6.74L116.52-6.74Q116.76-6.74 116.85-6.52 116.94-6.3 117.02-5.75 117.11-5.2 117.28-4.27 117.45-3.34 117.84-1.93L117.84-1.93Q117.86-1.81 117.88-1.72 117.89-1.64 117.89-1.56L117.89-1.56Q117.89-1.22 117.63-1.07 117.38-0.93 116.79-0.73L116.79-0.73Q115.79-0.39 114.68-0.04 113.57 0.32 112.48 0.61 111.39 0.9 110.39 1.09 109.39 1.27 108.64 1.27L108.64 1.27Q104.56 1.27 102.69-0.76 100.82-2.78 100.82-6.93L100.82-6.93Q100.82-7.64 100.87-8.39 100.92-9.13 100.99-9.94L100.99-9.94Q101.24-12.38 101.42-14.56 101.6-16.75 101.8-18.75L101.8-18.75 99.24-18.75Q97.92-18.75 97.33-18.86 96.75-18.97 96.75-19.31L96.75-19.31Q96.75-19.41 96.99-19.84 97.23-20.26 97.61-20.86 97.99-21.46 98.43-22.14 98.87-22.83 99.27-23.43 99.68-24.02 99.97-24.46 100.26-24.9 100.33-25L100.33-25 102.07-25Q102.29-26.86 102.42-28.11 102.56-29.37 102.64-30.2 102.73-31.03 102.8-31.48 102.87-31.93 102.96-32.15 103.04-32.37 103.18-32.43 103.31-32.5 103.53-32.54L103.53-32.54Q104.63-32.76 105.66-32.95 106.68-33.13 107.71-33.33 108.73-33.52 109.79-33.78 110.86-34.03 112-34.38L112-34.38Q112.08-34.38 112.1-34.39 112.13-34.4 112.2-34.4L112.2-34.4Q112.49-34.4 112.49-34.2L112.49-34.2 112.49-34.16Q112.37-32.81 112.11-30.42 111.86-28.03 111.54-25L111.54-25 118.08-25Q118.28-25 118.46-24.87 118.64-24.73 118.64-24.41L118.64-24.41Q118.64-24.29 118.35-23.54 118.06-22.78 117.52-21.56L117.52-21.56 116.64-19.58Q116.47-19.21 116.29-19.04 116.11-18.87 115.54-18.82L115.54-18.82ZM147.84-27.66L145.33-4.91Q145.3-4.81 145.3-4.72 145.3-4.64 145.3-4.57L145.3-4.57Q145.3-3.96 145.5-3.55 145.69-3.15 145.93-2.89 146.16-2.64 146.35-2.48 146.55-2.32 146.55-2.2L146.55-2.2Q146.55-1.86 145.82-1.56L145.82-1.56 139.25 1.25Q139.22 1.27 139.08 1.27L139.08 1.27Q138.88 1.27 138.69 0.93 138.49 0.59 138.31 0.06 138.12-0.46 137.97-1.06 137.81-1.66 137.69-2.17L137.69-2.17Q136.15-0.39 134.37 0.44 132.58 1.27 130.82 1.27L130.82 1.27Q128.77 1.27 126.82 0.37 124.87-0.54 123.35-2.21 121.84-3.88 120.93-6.25 120.01-8.62 120.01-11.57L120.01-11.57Q120.01-15.06 121.02-17.94 122.04-20.83 123.77-22.9 125.5-24.98 127.81-26.11 130.12-27.25 132.7-27.25L132.7-27.25Q134.54-27.25 136.17-26.5 137.81-25.76 139.27-24.58L139.27-24.58Q139.42-25.32 139.44-25.76 139.47-26.2 139.55-26.44 139.64-26.68 139.88-26.77 140.13-26.86 140.69-26.9L140.69-26.9Q142.45-27.15 144.19-27.36 145.94-27.56 147.84-27.66L147.84-27.66ZM137-6.88L138.03-14.11Q138.27-15.5 138.36-16.74 138.44-17.97 138.49-18.99L138.49-18.99Q138.1-19.29 137.65-19.6 137.2-19.92 136.67-20.2 136.15-20.48 135.57-20.65 135-20.83 134.37-20.83L134.37-20.83Q133.05-20.83 132.16-19.97 131.26-19.12 130.72-17.87 130.17-16.63 129.93-15.23 129.7-13.84 129.7-12.77L129.7-12.77Q129.7-8.91 130.72-7.12 131.73-5.32 133.53-5.32L133.53-5.32Q134.27-5.32 135.17-5.74 136.07-6.15 137-6.88L137-6.88ZM151.5-10.35L151.5-10.35Q151.82-13.7 152.14-16.97 152.45-20.24 152.7-23.68L152.7-23.68Q152.75-24.49 152.86-24.79 152.97-25.1 153.41-25.2L153.41-25.2Q155.48-25.61 157.75-26.06 160.02-26.51 162.15-27.22L162.15-27.22Q162.22-27.25 162.37-27.25L162.37-27.25Q162.63-27.25 162.63-27.05L162.63-27.05 160.44-3.27Q160.36-2.47 160.27-2.16 160.17-1.86 159.73-1.76L159.73-1.76Q157.65-1.12 155.53-0.34 153.41 0.44 151.04 1.25L151.04 1.25Q150.96 1.27 150.82 1.27L150.82 1.27Q150.55 1.27 150.55 1.03L150.55 1.03Q150.55 1 150.6 0.37 150.65-0.27 150.73-1.27 150.82-2.27 150.92-3.52 151.01-4.76 151.12-6.01 151.23-7.25 151.33-8.4 151.43-9.55 151.5-10.35ZM153.33-29.83L153.33-29.83Q153.41-30.88 153.44-31.45 153.48-32.01 153.5-32.29 153.53-32.57 153.53-32.64 153.53-32.71 153.54-32.75 153.55-32.79 153.56-32.9 153.58-33.01 153.6-33.36 153.63-33.72 153.67-34.4 153.72-35.08 153.82-36.28L153.82-36.28Q153.87-37.08 153.98-37.39 154.09-37.7 154.53-37.79L154.53-37.79Q156.6-38.21 158.87-38.66 161.14-39.11 163.27-39.82L163.27-39.82Q163.34-39.84 163.49-39.84L163.49-39.84Q163.56-39.7 163.68-39.65L163.68-39.65 163.76-39.6 163.22-32.91Q163.15-32.1 163.04-31.79 162.93-31.47 162.51-31.4L162.51-31.4Q160.44-31.01 158.31-30.54 156.19-30.08 153.82-29.61L153.82-29.61Q153.75-29.59 153.6-29.59L153.6-29.59Q153.33-29.59 153.33-29.83ZM192-0.78L186.07 0.88Q185.8 0.95 185.36 1.11 184.92 1.27 184.51 1.27L184.51 1.27Q184.16 1.27 183.91 1.1 183.65 0.93 183.65 0.51L183.65 0.51 183.65 0.37Q183.8-0.95 183.9-1.87 183.99-2.78 184.08-3.53 184.16-4.27 184.23-5.02 184.29-5.76 184.38-6.75 184.48-7.74 184.62-9.09 184.75-10.45 184.95-12.48L184.95-12.48Q185.07-13.72 185.17-15.01 185.26-16.31 185.26-17.41L185.26-17.41Q185.26-18.14 185.15-18.76 185.04-19.38 184.76-19.84 184.48-20.29 183.99-20.53 183.51-20.78 182.75-20.78L182.75-20.78Q182.19-20.78 181.2-20.53 180.21-20.29 179.23-19.73 178.26-19.17 177.5-18.25 176.74-17.33 176.65-15.99L176.65-15.99Q176.5-14.18 176.38-12.9 176.25-11.62 176.16-10.73 176.06-9.84 176-9.28 175.94-8.72 175.91-8.33L175.91-8.33Q175.89-8.23 175.84-7.79 175.79-7.35 175.73-6.74 175.67-6.13 175.61-5.44 175.55-4.76 175.49-4.15 175.42-3.54 175.39-3.1 175.35-2.66 175.35-2.56L175.35-2.56Q175.35-2.37 175.36-2.23 175.38-2.1 175.38-1.98L175.38-1.98Q175.38-1.78 175.19-1.65 175.01-1.51 174.37-1.34L174.37-1.34 167.9 0.88Q167.64 0.98 167.2 1.12 166.76 1.27 166.34 1.27L166.34 1.27Q166 1.27 165.74 1.1 165.49 0.93 165.49 0.51L165.49 0.51 167.71-24.44Q167.78-25.24 167.89-25.55 168-25.85 168.44-25.95L168.44-25.95Q170.66-26.39 173.01-26.84 175.35-27.29 177.57-28L177.57-28Q177.77-28 177.8-27.94 177.84-27.88 177.84-27.76L177.84-27.76Q177.84-27.71 177.83-27.61 177.82-27.51 177.76-27.17 177.69-26.83 177.59-26.14 177.48-25.44 177.28-24.19L177.28-24.19Q178.96-25.17 180.44-25.77 181.92-26.37 183.22-26.7 184.53-27.03 185.68-27.14 186.83-27.25 187.83-27.25L187.83-27.25Q191.27-27.25 192.83-25.16 194.39-23.07 194.39-18.9L194.39-18.9Q194.39-18.31 194.37-17.69 194.35-17.07 194.27-16.41L194.27-16.41 193.15-5.91Q193.03-4.88 193-4.02 192.98-3.15 192.98-2L192.98-2Q192.98-1.81 192.99-1.67 193-1.54 193-1.44L193-1.44Q193-1.22 192.82-1.1 192.64-0.98 192-0.78L192-0.78ZM212.63-27.25L212.63-27.25Q214.95-27.25 216.84-26.38 218.73-25.51 220.09-24.13 221.44-22.75 222.17-21.04 222.91-19.34 222.91-17.63L222.91-17.63Q222.91-16.11 221.98-14.59 221.05-13.06 219.38-11.84 217.71-10.62 215.36-9.86 213.02-9.11 210.21-9.11L210.21-9.11Q208.75-9.11 207.14-9.4L207.14-9.4Q207.23-8.35 207.75-7.59 208.26-6.84 209.04-6.35 209.82-5.86 210.81-5.63 211.8-5.4 212.85-5.4L212.85-5.4Q214.02-5.4 215.11-5.6 216.19-5.81 217.19-6.15 218.2-6.49 219.12-6.91 220.05-7.32 220.88-7.74L220.88-7.74Q221.1-7.79 221.26-7.82 221.42-7.86 221.56-7.86L221.56-7.86Q221.56-7.86 221.55-7.47 221.54-7.08 221.54-6.37 221.54-5.66 221.53-4.66 221.52-3.66 221.49-2.44L221.49-2.44Q221.56-2.32 221.59-2.2 221.61-2.08 221.61-2L221.61-2Q221.61-1.71 221.08-1.37 220.54-1.03 219.67-0.66 218.81-0.29 217.69 0.05 216.58 0.39 215.44 0.67 214.29 0.95 213.21 1.11 212.14 1.27 211.34 1.27L211.34 1.27Q208.7 1.27 206.22 0.35 203.74-0.56 201.83-2.27 199.91-3.98 198.76-6.42 197.61-8.86 197.61-11.91L197.61-11.91Q197.61-15.11 198.71-17.91 199.81-20.7 201.8-22.78 203.79-24.85 206.55-26.05 209.31-27.25 212.63-27.25ZM212.34-20.75L212.34-20.75Q211.34-20.75 210.49-20.32 209.65-19.9 208.95-19.1 208.26-18.31 207.75-17.2 207.23-16.09 206.92-14.75L206.92-14.75Q209.43-15.19 211.09-15.67 212.75-16.16 213.75-16.66 214.75-17.16 215.17-17.66 215.58-18.16 215.58-18.63L215.58-18.63Q215.58-19.07 215.25-19.46 214.92-19.85 214.44-20.14 213.95-20.43 213.37-20.59 212.8-20.75 212.34-20.75ZM243.93-8.33L244.44-13.89Q244.51-14.67 244.6-15.53 244.68-16.38 244.8-17.31L244.8-17.31Q244.24-18.77 243.22-19.69 242.19-20.61 240.65-20.61L240.65-20.61Q239.14-20.61 238.09-19.74 237.04-18.87 236.41-17.6 235.77-16.33 235.49-14.93 235.21-13.53 235.21-12.45L235.21-12.45Q235.21-11.13 235.37-9.84 235.53-8.54 235.88-7.5 236.23-6.45 236.82-5.8 237.41-5.15 238.29-5.15L238.29-5.15Q240.43-5.22 241.78-6.13 243.12-7.03 243.93-8.33L243.93-8.33ZM256.11-36.84L252.96-2.47Q252.96-2.42 252.95-2.36 252.93-2.29 252.93-2.25L252.93-2.25Q252.93-2.12 252.95-2.05 252.96-1.98 252.96-1.9L252.96-1.9Q252.96-1.68 252.8-1.55 252.64-1.42 251.98-1.25L251.98-1.25 245.44 0.88Q245.17 0.98 244.73 1.12 244.29 1.27 243.88 1.27L243.88 1.27Q243.53 1.27 243.28 1.1 243.02 0.93 243.02 0.46L243.02 0.46Q243.02 0.02 243.03-0.24 243.05-0.51 243.06-0.74 243.07-0.98 243.11-1.25 243.14-1.51 243.19-1.95L243.19-1.95Q241.36-0.49 239.42 0.39 237.48 1.27 235.33 1.27L235.33 1.27Q232.99 1.27 231.17 0.16 229.35-0.95 228.11-2.82 226.86-4.69 226.21-7.09 225.57-9.5 225.57-12.11L225.57-12.11Q225.57-15.5 226.68-18.3 227.79-21.09 229.69-23.08 231.6-25.07 234.14-26.16 236.67-27.25 239.53-27.25L239.53-27.25Q241.07-27.25 242.47-26.44 243.88-25.63 245.12-24.37L245.12-24.37Q245.19-25.56 245.29-26.97 245.39-28.37 245.49-29.82 245.59-31.27 245.68-32.69 245.78-34.11 245.85-35.28L245.85-35.28Q245.85-35.5 246.01-35.63 246.17-35.77 246.83-35.94L246.83-35.94 253.69-37.57Q253.96-37.62 254.4-37.79 254.84-37.96 255.25-37.96L255.25-37.96Q255.57-37.96 255.85-37.82 256.13-37.67 256.13-37.26L256.13-37.26Q256.13-37.21 256.12-37.05 256.11-36.89 256.11-36.84L256.11-36.84ZM280.25-17.43L279.44-7.96Q279.69-7.47 280.14-6.97 280.59-6.47 281.19-6.05 281.79-5.64 282.49-5.38 283.2-5.13 283.96-5.13L283.96-5.13Q285.01-5.13 285.94-5.94 286.86-6.76 287.56-8.14 288.26-9.52 288.65-11.29 289.04-13.06 289.04-14.97L289.04-14.97Q289.04-16.14 288.83-17.19 288.62-18.24 288.18-19.02 287.74-19.8 287.05-20.26 286.35-20.73 285.38-20.73L285.38-20.73Q283.79-20.73 282.47-19.8 281.15-18.87 280.25-17.43L280.25-17.43ZM270.36 1.2L270.36 1.2Q270.02 1.27 269.82 1.27L269.82 1.27Q269.04 1.27 269.04 0.34L269.04 0.34Q269.04 0.22 269.05 0.1 269.07-0.02 269.09-0.17L269.09-0.17 271.92-34.72Q271.92-34.79 271.94-34.86 271.95-34.94 271.95-34.99L271.95-34.99Q271.95-35.08 271.94-35.16 271.92-35.23 271.92-35.28L271.92-35.28Q271.92-35.5 272.08-35.63 272.24-35.77 272.9-35.94L272.9-35.94 279.76-37.57Q280.03-37.62 280.47-37.79 280.91-37.96 281.32-37.96L281.32-37.96Q281.64-37.96 281.92-37.82 282.2-37.67 282.2-37.26L282.2-37.26Q282.2-37.21 282.19-37.16 282.18-37.11 282.18-37.06L282.18-37.06Q282.15-36.94 282.06-35.99 281.96-35.03 281.84-33.68 281.71-32.32 281.57-30.77 281.42-29.22 281.3-27.87 281.18-26.51 281.08-25.56 280.98-24.61 280.96-24.49L280.96-24.49Q282.74-25.66 284.64-26.45 286.55-27.25 288.45-27.25L288.45-27.25Q290.97-27.25 292.8-26.21 294.63-25.17 295.82-23.45 297.02-21.73 297.59-19.48 298.17-17.24 298.17-14.84L298.17-14.84Q298.17-12.92 297.81-10.97 297.46-9.03 296.79-7.25 296.12-5.47 295.1-3.91 294.09-2.34 292.79-1.2 291.48-0.05 289.87 0.61 288.26 1.27 286.38 1.27L286.38 1.27Q284.11 1.27 282.23 0.27 280.35-0.73 278.73-2.32L278.73-2.32Q278.69-1.73 278.66-1.39 278.64-1.05 278.5-0.87 278.37-0.68 278.1-0.57 277.83-0.46 277.29-0.34L277.29-0.34Q277.03-0.27 276.35-0.11 275.68 0.05 274.74 0.26 273.8 0.46 272.67 0.71 271.53 0.95 270.36 1.2ZM329.44-27L327.15-3.03Q327.07-2.22 326.95-1.92 326.83-1.61 326.41-1.51L326.41-1.51Q324.34-0.93 322.08-0.33 319.82 0.27 317.7 1.25L317.7 1.25Q317.62 1.27 317.48 1.27L317.48 1.27Q317.28 1.27 317.25 1.17 317.21 1.07 317.21 0.95L317.21 0.95Q317.21 0.9 317.22 0.78 317.23 0.66 317.28 0.33 317.33 0 317.42-0.59 317.5-1.17 317.65-2.15L317.65-2.15Q314.91-0.37 312.8 0.45 310.69 1.27 309.05 1.27L309.05 1.27Q304.98 1.27 303.11-0.7 301.24-2.66 301.24-6.57L301.24-6.57Q301.24-7.28 301.27-8.02 301.29-8.76 301.41-9.55L301.41-9.55Q301.68-12.43 301.88-14.49 302.07-16.55 302.19-17.99 302.32-19.43 302.4-20.35 302.49-21.26 302.55-21.88 302.61-22.49 302.65-22.89 302.68-23.29 302.73-23.68L302.73-23.68Q302.83-24.46 302.91-24.78 303-25.1 303.46-25.2L303.46-25.2Q304.61-25.42 305.65-25.6 306.69-25.78 307.7-25.99 308.71-26.2 309.76-26.44 310.81-26.68 311.98-27.03L311.98-27.03Q312.03-27.03 312.08-27.04 312.13-27.05 312.18-27.05L312.18-27.05Q312.47-27.05 312.47-26.86L312.47-26.86 312.47-26.81Q312.37-25.98 312.3-25.24 312.23-24.51 312.16-23.74 312.08-22.97 312-22.09 311.91-21.22 311.79-20.06 311.67-18.9 311.5-17.38 311.33-15.87 311.08-13.87L311.08-13.87Q310.93-12.4 310.79-10.95 310.64-9.5 310.64-8.25L310.64-8.25Q310.64-7.57 310.74-6.99 310.84-6.42 311.09-6.02 311.35-5.62 311.76-5.4 312.18-5.18 312.84-5.18L312.84-5.18Q313.35-5.18 314.23-5.41 315.11-5.64 315.99-6.21 316.87-6.79 317.54-7.73 318.21-8.67 318.31-10.11L318.31-10.11Q318.48-12.52 318.61-14.15 318.75-15.77 318.84-16.88 318.94-17.99 319.02-18.75 319.09-19.51 319.15-20.2 319.21-20.9 319.26-21.69 319.31-22.49 319.36-23.68L319.36-23.68Q319.43-24.49 319.54-24.79 319.65-25.1 320.09-25.2L320.09-25.2Q322.31-25.63 324.63-26.09 326.95-26.54 329.17-27.25L329.17-27.25Q329.37-27.25 329.4-27.19 329.44-27.12 329.44-27L329.44-27ZM350.29-18.82L345.75-18.82Q345.4-16.26 345.1-13.71 344.79-11.16 344.72-8.94L344.72-8.94Q344.72-7.98 344.87-7.35 345.01-6.71 345.29-6.35 345.58-5.98 345.97-5.82 346.36-5.66 346.85-5.66L346.85-5.66Q347.63-5.66 348.55-5.9 349.48-6.13 350.41-6.49L350.41-6.49Q350.7-6.62 350.91-6.68 351.12-6.74 351.26-6.74L351.26-6.74Q351.51-6.74 351.59-6.52 351.68-6.3 351.76-5.75 351.85-5.2 352.02-4.27 352.19-3.34 352.58-1.93L352.58-1.93Q352.61-1.81 352.62-1.72 352.63-1.64 352.63-1.56L352.63-1.56Q352.63-1.22 352.37-1.07 352.12-0.93 351.53-0.73L351.53-0.73Q350.53-0.39 349.42-0.04 348.31 0.32 347.22 0.61 346.14 0.9 345.14 1.09 344.14 1.27 343.38 1.27L343.38 1.27Q339.3 1.27 337.43-0.76 335.57-2.78 335.57-6.93L335.57-6.93Q335.57-7.64 335.61-8.39 335.66-9.13 335.74-9.94L335.74-9.94Q335.98-12.38 336.16-14.56 336.35-16.75 336.54-18.75L336.54-18.75 333.98-18.75Q332.66-18.75 332.07-18.86 331.49-18.97 331.49-19.31L331.49-19.31Q331.49-19.41 331.73-19.84 331.98-20.26 332.36-20.86 332.73-21.46 333.17-22.14 333.61-22.83 334.02-23.43 334.42-24.02 334.71-24.46 335-24.9 335.08-25L335.08-25 336.81-25Q337.03-26.86 337.16-28.11 337.3-29.37 337.38-30.2 337.47-31.03 337.54-31.48 337.62-31.93 337.7-32.15 337.79-32.37 337.92-32.43 338.06-32.5 338.28-32.54L338.28-32.54Q339.37-32.76 340.4-32.95 341.43-33.13 342.45-33.33 343.48-33.52 344.54-33.78 345.6-34.03 346.75-34.38L346.75-34.38Q346.82-34.38 346.85-34.39 346.87-34.4 346.94-34.4L346.94-34.4Q347.24-34.4 347.24-34.2L347.24-34.2 347.24-34.16Q347.11-32.81 346.86-30.42 346.6-28.03 346.28-25L346.28-25 352.83-25Q353.02-25 353.2-24.87 353.39-24.73 353.39-24.41L353.39-24.41Q353.39-24.29 353.1-23.54 352.8-22.78 352.26-21.56L352.26-21.56 351.39-19.58Q351.22-19.21 351.03-19.04 350.85-18.87 350.29-18.82L350.29-18.82ZM366.57-0.07L366.25-6.74Q366.25-6.76 366.24-6.77 366.22-6.79 366.22-6.81L366.22-6.81Q366.22-7.13 366.57-7.13L366.57-7.13Q366.79-7.13 366.96-6.96L366.96-6.96Q367.93-6.03 369.19-5.44 370.45-4.86 371.91-4.86L371.91-4.86Q372.3-4.86 372.82-4.94 373.33-5.03 373.79-5.22 374.26-5.42 374.56-5.75 374.87-6.08 374.87-6.57L374.87-6.57Q374.87-7.1 374.6-7.56 374.33-8.01 373.89-8.3L373.89-8.3Q373.65-8.47 373.04-8.9 372.43-9.33 371.73-9.81 371.03-10.3 370.41-10.74 369.79-11.18 369.55-11.38L369.55-11.38Q368.45-12.21 367.8-13.06 367.15-13.92 366.81-14.83 366.47-15.75 366.37-16.75 366.27-17.75 366.27-18.87L366.27-18.87Q366.27-20.58 367.18-22.09 368.08-23.61 369.56-24.76 371.03-25.9 372.91-26.57 374.79-27.25 376.75-27.25L376.75-27.25Q378.36-27.25 379.92-26.76 381.48-26.27 382.83-25.1L382.83-25.1Q382.95-23.56 383-22.07 383.05-20.58 383.14-18.95L383.14-18.95Q383.14-18.63 383-18.52 382.85-18.41 382.66-18.41L382.66-18.41Q382.48-18.41 382.36-18.53L382.36-18.53Q381.8-19.07 381.22-19.59 380.63-20.12 379.98-20.52 379.34-20.92 378.6-21.18 377.87-21.44 377.04-21.44L377.04-21.44Q376.53-21.44 376.01-21.35 375.5-21.26 375.09-21.03 374.67-20.8 374.42-20.41 374.16-20.02 374.16-19.41L374.16-19.41Q374.16-18.7 374.33-18.19 374.5-17.68 375.14-17.19L375.14-17.19 379.68-14.11Q380.92-13.26 381.69-12.44 382.46-11.62 382.9-10.82 383.34-10.01 383.5-9.22 383.66-8.42 383.66-7.64L383.66-7.64Q383.66-5.44 382.64-3.77 381.63-2.1 380.02-0.99 378.41 0.12 376.37 0.7 374.33 1.27 372.28 1.27L372.28 1.27Q370.72 1.27 369.26 0.94 367.81 0.61 366.57-0.07L366.57-0.07ZM401.7-27.25L401.7-27.25Q404.02-27.25 405.91-26.38 407.8-25.51 409.15-24.13 410.51-22.75 411.24-21.04 411.97-19.34 411.97-17.63L411.97-17.63Q411.97-16.11 411.05-14.59 410.12-13.06 408.45-11.84 406.77-10.62 404.43-9.86 402.09-9.11 399.28-9.11L399.28-9.11Q397.81-9.11 396.2-9.4L396.2-9.4Q396.3-8.35 396.81-7.59 397.33-6.84 398.11-6.35 398.89-5.86 399.88-5.63 400.87-5.4 401.92-5.4L401.92-5.4Q403.09-5.4 404.17-5.6 405.26-5.81 406.26-6.15 407.26-6.49 408.19-6.91 409.12-7.32 409.95-7.74L409.95-7.74Q410.17-7.79 410.33-7.82 410.48-7.86 410.63-7.86L410.63-7.86Q410.63-7.86 410.62-7.47 410.61-7.08 410.61-6.37 410.61-5.66 410.59-4.66 410.58-3.66 410.56-2.44L410.56-2.44Q410.63-2.32 410.66-2.2 410.68-2.08 410.68-2L410.68-2Q410.68-1.71 410.14-1.37 409.61-1.03 408.74-0.66 407.87-0.29 406.76 0.05 405.65 0.39 404.5 0.67 403.36 0.95 402.28 1.11 401.21 1.27 400.4 1.27L400.4 1.27Q397.77 1.27 395.29 0.35 392.81-0.56 390.89-2.27 388.98-3.98 387.83-6.42 386.68-8.86 386.68-11.91L386.68-11.91Q386.68-15.11 387.78-17.91 388.88-20.7 390.87-22.78 392.86-24.85 395.62-26.05 398.38-27.25 401.7-27.25ZM401.4-20.75L401.4-20.75Q400.4-20.75 399.56-20.32 398.72-19.9 398.02-19.1 397.33-18.31 396.81-17.2 396.3-16.09 395.98-14.75L395.98-14.75Q398.5-15.19 400.16-15.67 401.82-16.16 402.82-16.66 403.82-17.16 404.23-17.66 404.65-18.16 404.65-18.63L404.65-18.63Q404.65-19.07 404.32-19.46 403.99-19.85 403.5-20.14 403.01-20.43 402.44-20.59 401.87-20.75 401.4-20.75ZM414.54-11.91L414.54-11.91Q414.54-15.11 415.72-17.91 416.9-20.7 418.99-22.78 421.08-24.85 423.92-26.05 426.77-27.25 430.11-27.25L430.11-27.25Q432.38-27.25 433.99-26.88 435.6-26.51 436.63-26.06 437.66-25.61 438.13-25.23 438.61-24.85 438.61-24.83L438.61-24.83Q438.61-24.68 438.5-24.01 438.39-23.34 438.25-22.45 438.12-21.56 438.01-20.62 437.9-19.68 437.9-18.99L437.9-18.99Q437.9-18.87 437.83-18.73 437.75-18.58 437.44-18.58L437.44-18.58Q437.14-18.58 436.58-18.79 436.02-18.99 435.2-19.24 434.38-19.48 433.32-19.69 432.26-19.9 430.97-19.9L430.97-19.9Q429.35-19.9 428.06-19.32 426.77-18.75 425.84-17.74 424.91-16.72 424.41-15.33 423.91-13.94 423.91-12.33L423.91-12.33Q423.91-10.64 424.44-9.46 424.96-8.28 425.84-7.53 426.72-6.79 427.87-6.45 429.01-6.1 430.28-6.1L430.28-6.1Q431.75-6.1 433.24-6.51 434.73-6.91 436.04-7.64L436.04-7.64Q436.09-7.67 436.24-7.67L436.24-7.67Q436.36-7.67 436.42-7.54 436.48-7.42 436.48-7.08L436.48-7.08Q436.48-6.3 436.48-5.19 436.48-4.08 436.47-3.06 436.46-2.05 436.43-1.34 436.41-0.63 436.39-0.63L436.39-0.63Q435.51-0.05 434.48 0.32 433.46 0.68 432.37 0.9 431.28 1.12 430.18 1.2 429.09 1.27 428.06 1.27L428.06 1.27Q425.2 1.27 422.74 0.32 420.27-0.63 418.45-2.37 416.63-4.1 415.59-6.53 414.54-8.96 414.54-11.91ZM468.83-27L466.53-3.03Q466.46-2.22 466.34-1.92 466.22-1.61 465.8-1.51L465.8-1.51Q463.73-0.93 461.47-0.33 459.21 0.27 457.09 1.25L457.09 1.25Q457.01 1.27 456.87 1.27L456.87 1.27Q456.67 1.27 456.63 1.17 456.6 1.07 456.6 0.95L456.6 0.95Q456.6 0.9 456.61 0.78 456.62 0.66 456.67 0.33 456.72 0 456.81-0.59 456.89-1.17 457.04-2.15L457.04-2.15Q454.3-0.37 452.19 0.45 450.08 1.27 448.44 1.27L448.44 1.27Q444.37 1.27 442.5-0.7 440.63-2.66 440.63-6.57L440.63-6.57Q440.63-7.28 440.66-8.02 440.68-8.76 440.8-9.55L440.8-9.55Q441.07-12.43 441.27-14.49 441.46-16.55 441.58-17.99 441.71-19.43 441.79-20.35 441.88-21.26 441.94-21.88 442-22.49 442.04-22.89 442.07-23.29 442.12-23.68L442.12-23.68Q442.22-24.46 442.3-24.78 442.39-25.1 442.85-25.2L442.85-25.2Q444-25.42 445.04-25.6 446.08-25.78 447.09-25.99 448.1-26.2 449.15-26.44 450.2-26.68 451.37-27.03L451.37-27.03Q451.42-27.03 451.47-27.04 451.52-27.05 451.57-27.05L451.57-27.05Q451.86-27.05 451.86-26.86L451.86-26.86 451.86-26.81Q451.76-25.98 451.69-25.24 451.62-24.51 451.54-23.74 451.47-22.97 451.39-22.09 451.3-21.22 451.18-20.06 451.06-18.9 450.89-17.38 450.71-15.87 450.47-13.87L450.47-13.87Q450.32-12.4 450.18-10.95 450.03-9.5 450.03-8.25L450.03-8.25Q450.03-7.57 450.13-6.99 450.23-6.42 450.48-6.02 450.74-5.62 451.15-5.4 451.57-5.18 452.23-5.18L452.23-5.18Q452.74-5.18 453.62-5.41 454.5-5.64 455.38-6.21 456.26-6.79 456.93-7.73 457.6-8.67 457.7-10.11L457.7-10.11Q457.87-12.52 458-14.15 458.14-15.77 458.23-16.88 458.33-17.99 458.4-18.75 458.48-19.51 458.54-20.2 458.6-20.9 458.65-21.69 458.7-22.49 458.75-23.68L458.75-23.68Q458.82-24.49 458.93-24.79 459.04-25.1 459.48-25.2L459.48-25.2Q461.7-25.63 464.02-26.09 466.34-26.54 468.56-27.25L468.56-27.25Q468.76-27.25 468.79-27.19 468.83-27.12 468.83-27L468.83-27ZM493.46-27.44L491.95-19.87Q491.43-19.92 490.8-19.98 490.16-20.04 489.46-20.04L489.46-20.04Q488.38-20.04 487.27-19.86 486.16-19.68 485.21-19.14 484.26-18.6 483.57-17.66 482.89-16.72 482.69-15.23L482.69-15.23Q482.52-13.43 482.41-12.27 482.3-11.11 482.25-10.36 482.21-9.62 482.17-9.17 482.13-8.72 482.11-8.33L482.11-8.33Q482.11-8.23 482.07-7.79 482.04-7.35 481.96-6.76 481.89-6.18 481.83-5.49 481.77-4.81 481.69-4.22 481.62-3.64 481.58-3.2 481.55-2.76 481.55-2.66L481.55-2.66Q481.55-2.47 481.56-2.33 481.57-2.2 481.57-2.08L481.57-2.08Q481.57-1.88 481.39-1.75 481.21-1.61 480.57-1.44L480.57-1.44 474.1 0.88Q473.83 0.98 473.39 1.12 472.95 1.27 472.54 1.27L472.54 1.27Q472.2 1.27 471.94 1.1 471.68 0.93 471.68 0.51L471.68 0.51 473.78-23.68Q473.86-24.49 473.97-24.79 474.08-25.1 474.52-25.2L474.52-25.2Q476.74-25.63 479.11-26.09 481.47-26.54 483.7-27.25L483.7-27.25Q483.89-27.25 483.93-27.19 483.96-27.12 483.96-27L483.96-27Q483.96-26.95 483.95-26.86 483.94-26.76 483.88-26.42 483.82-26.07 483.71-25.38 483.6-24.68 483.4-23.44L483.4-23.44Q484.53-24.32 485.88-25.05 487.24-25.78 488.6-26.31 489.97-26.83 491.24-27.14 492.51-27.44 493.46-27.44L493.46-27.44ZM508.08-27.25L508.08-27.25Q510.4-27.25 512.29-26.38 514.19-25.51 515.54-24.13 516.9-22.75 517.63-21.04 518.36-19.34 518.36-17.63L518.36-17.63Q518.36-16.11 517.43-14.59 516.51-13.06 514.83-11.84 513.16-10.62 510.82-9.86 508.47-9.11 505.67-9.11L505.67-9.11Q504.2-9.11 502.59-9.4L502.59-9.4Q502.69-8.35 503.2-7.59 503.71-6.84 504.49-6.35 505.27-5.86 506.26-5.63 507.25-5.4 508.3-5.4L508.3-5.4Q509.47-5.4 510.56-5.6 511.65-5.81 512.65-6.15 513.65-6.49 514.58-6.91 515.5-7.32 516.33-7.74L516.33-7.74Q516.55-7.79 516.71-7.82 516.87-7.86 517.02-7.86L517.02-7.86Q517.02-7.86 517.01-7.47 516.99-7.08 516.99-6.37 516.99-5.66 516.98-4.66 516.97-3.66 516.94-2.44L516.94-2.44Q517.02-2.32 517.04-2.2 517.07-2.08 517.07-2L517.07-2Q517.07-1.71 516.53-1.37 515.99-1.03 515.13-0.66 514.26-0.29 513.15 0.05 512.04 0.39 510.89 0.67 509.74 0.95 508.67 1.11 507.59 1.27 506.79 1.27L506.79 1.27Q504.15 1.27 501.67 0.35 499.2-0.56 497.28-2.27 495.36-3.98 494.22-6.42 493.07-8.86 493.07-11.91L493.07-11.91Q493.07-15.11 494.17-17.91 495.27-20.7 497.25-22.78 499.24-24.85 502-26.05 504.76-27.25 508.08-27.25ZM507.79-20.75L507.79-20.75Q506.79-20.75 505.95-20.32 505.1-19.9 504.41-19.1 503.71-18.31 503.2-17.2 502.69-16.09 502.37-14.75L502.37-14.75Q504.88-15.19 506.54-15.67 508.2-16.16 509.21-16.66 510.21-17.16 510.62-17.66 511.04-18.16 511.04-18.63L511.04-18.63Q511.04-19.07 510.71-19.46 510.38-19.85 509.89-20.14 509.4-20.43 508.83-20.59 508.25-20.75 507.79-20.75ZM539.38-8.33L539.89-13.89Q539.96-14.67 540.05-15.53 540.14-16.38 540.26-17.31L540.26-17.31Q539.7-18.77 538.67-19.69 537.65-20.61 536.11-20.61L536.11-20.61Q534.59-20.61 533.54-19.74 532.49-18.87 531.86-17.6 531.22-16.33 530.94-14.93 530.66-13.53 530.66-12.45L530.66-12.45Q530.66-11.13 530.82-9.84 530.98-8.54 531.33-7.5 531.69-6.45 532.27-5.8 532.86-5.15 533.74-5.15L533.74-5.15Q535.89-5.22 537.23-6.13 538.57-7.03 539.38-8.33L539.38-8.33ZM551.56-36.84L548.41-2.47Q548.41-2.42 548.4-2.36 548.39-2.29 548.39-2.25L548.39-2.25Q548.39-2.12 548.4-2.05 548.41-1.98 548.41-1.9L548.41-1.9Q548.41-1.68 548.25-1.55 548.09-1.42 547.44-1.25L547.44-1.25 540.89 0.88Q540.62 0.98 540.18 1.12 539.74 1.27 539.33 1.27L539.33 1.27Q538.99 1.27 538.73 1.1 538.48 0.93 538.48 0.46L538.48 0.46Q538.48 0.02 538.49-0.24 538.5-0.51 538.51-0.74 538.52-0.98 538.56-1.25 538.6-1.51 538.65-1.95L538.65-1.95Q536.82-0.49 534.87 0.39 532.93 1.27 530.78 1.27L530.78 1.27Q528.44 1.27 526.62 0.16 524.8-0.95 523.56-2.82 522.31-4.69 521.67-7.09 521.02-9.5 521.02-12.11L521.02-12.11Q521.02-15.5 522.13-18.3 523.24-21.09 525.15-23.08 527.05-25.07 529.59-26.16 532.13-27.25 534.98-27.25L534.98-27.25Q536.52-27.25 537.93-26.44 539.33-25.63 540.58-24.37L540.58-24.37Q540.65-25.56 540.75-26.97 540.84-28.37 540.94-29.82 541.04-31.27 541.14-32.69 541.23-34.11 541.31-35.28L541.31-35.28Q541.31-35.5 541.47-35.63 541.62-35.77 542.28-35.94L542.28-35.94 549.14-37.57Q549.41-37.62 549.85-37.79 550.29-37.96 550.71-37.96L550.71-37.96Q551.02-37.96 551.3-37.82 551.59-37.67 551.59-37.26L551.59-37.26Q551.59-37.21 551.57-37.05 551.56-36.89 551.56-36.84L551.56-36.84Z" opacity="1" transform="matrix(1,0,0,1,0,0)" fill="#755bb4" class="slogan-text-1" data-fill-palette-color="secondary" id="text-1"></path></svg></g></svg></g></svg></g></svg></g><g transform="matrix(1,0,0,1,48.69469668584598,0)"><svg viewBox="0 0 133.01060662830804 133.01060662830804" height="133.01060662830804" width="133.01060662830804"><g><svg></svg></g><g id="icon-0"><svg viewBox="0 0 133.01060662830804 133.01060662830804" height="133.01060662830804" width="133.01060662830804"><g><path d="M0 66.505c0-36.73 29.775-66.505 66.505-66.505 36.73 0 66.505 29.775 66.506 66.505 0 36.73-29.775 66.505-66.506 66.506-36.73 0-66.505-29.775-66.505-66.506zM66.505 128.811c34.411 0 62.306-27.895 62.306-62.306 0-34.411-27.895-62.306-62.306-62.306-34.411 0-62.306 27.895-62.306 62.306 0 34.411 27.895 62.306 62.306 62.306z" data-fill-palette-color="accent" fill="#755bb4" stroke="transparent"></path></g><g transform="matrix(1,0,0,1,36.310041979134766,27.482375420469623)"><svg viewBox="0 0 60.3905226700385 78.0458557873688" height="78.0458557873688" width="60.3905226700385"><g><svg xmlns="http://www.w3.org/2000/svg" xmlns:xlink="http://www.w3.org/1999/xlink" version="1.1" x="0" y="0" viewBox="12.982999801635742 1 75.68599700927734 97.81300354003906" enable-background="new 0 0 100 100" xml:space="preserve" height="78.0458557873688" width="60.3905226700385" class="icon-s-0" data-fill-palette-color="accent" id="s-0"><g fill="#755bb4" data-fill-palette-color="accent"><polygon fill-rule="evenodd" clip-rule="evenodd" points="12.983,10.59 30.001,98.813 24.129,39.764 53.15,37.872 53.096,27.989    64.549,1 53.622,18.977  " fill="#755bb4" data-fill-palette-color="accent"></polygon><polygon fill-rule="evenodd" clip-rule="evenodd" points="59.389,54.548 64.549,1.007 55.809,40.723 36.197,41.768 37.767,62.23    30.001,98.813 42.058,58.914  " fill="#755bb4" data-fill-palette-color="accent"></polygon><polygon fill-rule="evenodd" clip-rule="evenodd" points="62.8,67.182 63.349,56.729 47.37,60.484 47.338,72.281 30.001,98.813    51.681,71.197  " fill="#755bb4" data-fill-palette-color="accent"></polygon><polygon fill-rule="evenodd" clip-rule="evenodd" points="65.711,62.394 80.552,57.663 82.061,45.131 66.162,47.226  " fill="#755bb4" data-fill-palette-color="accent"></polygon><polygon fill-rule="evenodd" clip-rule="evenodd" points="72.07,44.502 83.058,43.085 84.639,32.807 76.56,32.434 64.549,1    72.979,31.967  " fill="#755bb4" data-fill-palette-color="accent"></polygon><polygon fill-rule="evenodd" clip-rule="evenodd" points="87.413,31.294 88.669,21.788 79.125,19.094 64.549,1 79.032,23.437    78.61,30.437  " fill="#755bb4" data-fill-palette-color="accent"></polygon></g></svg></g></svg></g></svg></g></svg></g><g></g></svg></g></svg></g></svg></g><defs></defs></svg><rect width="512" height="320" fill="none" stroke="none" visibility="hidden"></rect></g></svg></g></svg>